<mxfile host="app.diagrams.net" modified="2024-06-19T00:08:31.689Z" agent="Mozilla/5.0 (Windows NT 10.0; Win64; x64) AppleWebKit/537.36 (KHTML, like Gecko) Chrome/123.0.0.0 Safari/537.36 OPR/109.0.0.0 (Edition std-1)" version="24.4.8" etag="USe1lpjn9WHs78awRlJt" type="github">
  <diagram name="Page-1" id="xJedxv8Ko4fxZ3uIvGJH">
    <mxGraphModel>
      <root>
        <mxCell id="0" />
        <mxCell id="1" parent="0" />
      </root>
    </mxGraphModel>
  </diagram>
</mxfile>
